<svg height="836.47913" width="1345.3145" xmlns="http://www.w3.org/2000/svg"><g transform="translate(-1.148898 -213.09157)"><path d="m1.148898 631.33118h1345.3145v418.23953h-1345.3145z" fill="#ffd700" fill-rule="evenodd"/><path d="m1.148898 213.09157h1345.3145v418.23953h-1345.3145z" fill="#f00" fill-rule="evenodd"/><path d="m445.66656 369.36573c5.45047 100.37242 17.88453 223.20722 26.21562 339.20649 7.76562 108.12583 97.02814 181.36824 203.41184 180.41394 106.3837-.95429 194.71862-82.0881 201.19907-180.41394 7.46109-113.20514 16.75133-226.08994 25.4526-339.20649-140.49702-29.99264-308.40969-34.64452-456.27913 0z" fill="#fff"/><g transform="translate(336.80275 109.86666)"><path d="m115.78765 266.5501c5.28153 97.26143 17.33021 216.28903 25.40308 328.69296 7.52493 104.77453 94.0208 175.74683 197.10719 174.82211 103.0864-.92471 188.68342-79.54382 194.96301-174.82211 7.22984-109.6964 16.23213-219.08239 24.66371-328.69296-136.14239-29.06303-298.85069-33.57073-442.13699 0z" fill="#fff"/><path d="m426 274.21875-199.78125 116v66.3125l196.8125-115.9375m6.25-131.15625h-131.09375l-71.96875 43.6875v73.8125zm-23.875 209.46875c-55.76064 32.77907-124.05289 73.29314-178.78125 106.03125-.95595 4.55685.40625 6.15625.40625 6.15625 84.10589-3.51182 133.98805-37.90635 178.375-112.1875z" fill="#f00" fill-rule="evenodd" stroke="#000" stroke-width="3" transform="translate(111.519 241.937)"/><path d="m142.38871 601.9456c-4.40036-49.26668-5.09721-101.39223-10.30414-150.57884h104.29588v293.80378c-60.24358-39.23085-88.06749-76.89665-93.99174-143.22494z" fill="#f00" stroke="#000" stroke-width="3"/><path d="m293.78125 209.4375v309.8125c21.67194-9.35642 36.09933-15.25627 52.90625-29.5625v-280.25z" fill="#ffd700" fill-rule="evenodd" stroke="#000" stroke-width="3" transform="translate(111.519 241.937)"/><path d="m234.84375 1.3125c-62.65383.6785-119.29352-2.42725-230.4375 25.8125l16 180.625h411.59375c4.36641-56.35609 8.43903-121.386757 13.6875-184.1875-29.56391-8.80926-139.99242-23.01726-210.84375-22.25z" fill="#ffd700" fill-rule="evenodd" transform="translate(111.519 241.937)"/><path d="m534.57856 597.51529-8.81375-1.50669z" fill="#0c0a08"/><path d="m142.36725 597.51529 7.3448-1.50669z" fill="#0c0a08"/><path d="m340.67635 772.29088h-4.40689 4.40689-4.40689z" fill="#0c0a08"/><path d="m111.80025 262.687c5.38031 99.08051 17.65434 220.33427 25.8782 334.84048 7.66566 106.73412 95.77926 179.03381 200.79367 178.0918s192.21235-81.03153 198.60938-178.0918c7.36506-111.74804 16.53572-223.17987 25.125-334.84048-138.68865-29.60659-304.44007-34.1986-450.40625 0zm440.53093 5.30049c-7.26672 110.12981-15.05027 219.41018-22.31699 329.53999-6.03198 91.41692-91.57758 174.40854-191.54207 173.0918s-187.27704-70.39345-193.60937-173.0918c-7.05832-114.4726-16.69729-220.10971-25.04593-330.05682 139.89636-31.75559 297.42405-23.78219 432.51436.51683z"/><path d="m19.639476 208.79864h412.428994" fill="none" stroke="#000" stroke-width="4.5" transform="translate(111.519 241.937)"/><path d="m336.85614 452.80295v318.36625" fill="none" stroke="#000" stroke-width="4.5"/><path d="m132.21875 31.65625c-1.77925 1.667739-2.72528 1.283268-4.40625 3-1.59789 1.517176-2.9375 2.36754-2.9375 4.53125-10.53196 5.008814-7.09555 16.758762-2.9375 21.09375 9.57938-6.423557 16.4196-.796836 26.9372 2.870793-7.22731-1.074895-11.00499 3.71101-6.56851 8.241889 4.99614-3.29446 10.24325-3.69196 16.30259-1.629207 3.14984 1.319903 4.99245 1.597972 7.39122 4.047775-1.94904 1.028484-3.91239 2.029066-5.875 3.03125 4.85125.385865 9.15328-.358679 11.75-3.03125l2.9375 3.03125c2.6297 3.38809 5.00203 6.943935 7.34375 10.53125 0 2.510417.77524 4.245591.77524 6.756008-3.12582 3.708869-8.44959 4.615018-11.05649.775242 2.67623 6.24517 10.23614 7.11823 14.6875 3.03125l5.875 7.53125c.57375 2.51798 1.46875 4.94238 1.46875 7.53125-2.44792 0-4.94444-.48542-7.34375 0-2.45309.49631-6.5244.91288-7.34375 3-1.23542 3.14697.41853 5.82246 1.46875 9.0625-1.50276 1.18441-2.11811 2.82636-2.9375 4.5-4.50749 3.13-9.90831 3.95068-14.6875 3.03125-1.89026-.36365-1.41389-3.44022-2.9375-4.53125-6.76954-4.84754-16.62099-6.74964-23.5-4.5-4.24328 1.38768-8.13784 4.51045-11.75 4.5-10.73055-2.83482-16.29654-12.31305-17.65625-21.09375-.15034-.97084 2.36153-1.22992 2.96875-3 3.49891 3.16001 8.90147 5.84378 12.65445 7.53125 3.109 1.39791 8.97649.77958 12.3143-3.03125 2.14834-2.4528.68677-13.120691-.90445-15.0625-5.57932-6.808594-15.40915-8.361992-22.59555-12.03125-2.19062-3.751749-3.92606-12.85212 0-13.5625-4.77242-5.057639-9.27658 4.778346-10.09375 8.09375 0 0-55.62866-41.705165-57.5-42.75-.427467-.23867-1.122562-.346188-1.46875 0-.353553.353553 0 1.5 0 1.5 2.19652 1.080122 37.466175 28.453819 57.052731 42.422958-2.481609.735263-5.056961 2.184621-7.578094 3.379227-29.638139-18.64554-72.521504-41.26501-68.568387-45.802185-8.573693 7.891067-5.47599 14.217374 1.679692 19.414058 18.393904 13.358239 25.494678 17.049471 56.103502 34.549697-1.432816 1.76316-1.84228 1.748758-3.326378 4.582037-18.684247-8.351958-37.521631-17.976438-55.925566-26.920792h-1.46875v1.53125c18.270618 9.76414 37.347514 19.221709 56.519316 27.050566-.518831 1.0375-1.583605 3.633044-2.092415 4.675485-15.026179-3.32771-57.844383-14.628836-54.426901-21.194801-7.55228 11.147736-2.471187 15.237192 5.521642 18.818508 14.776489 6.620842 32.889847 10.375502 46.327546 14.421942 0 .90163.27409 2.21257.27409 2.99046-15.671289-2.26-44.382459-6.95987-50.654528-7.60591-.487007-.0502-1.205279-.22611-1.436448.0646-.338862.42615.08881 1.1871 1.436448 1.4354 15.995803 2.94722 36.712691 5.68043 50.654528 7.71398l.646481 1.62261c-16.958738 1.8089-48.249164 4.11895-49.832259-.27409-2.328653 10.66408 2.612118 18.53813 11.75 18.0625 15.004001-1.14303 27.506933-3.75043 42.78125-5.84375l1.233071 2.02648c-17.796727 4.33349-50.971818 12.5706-52.826821 12.87977-1.162864.19381-1.938106.22476-1.938106 1.37079 0 1.85668 1.019004.88141 1.938106.91857 4.673302.18896 35.224313-9.01712 53.893873-13.80368 0 .60417 1.004995 1.20833 1.004995 1.8125-11.528493 5.55021-52.470569 26.51373-54.898868 21.73307-.307571 7.11409 3.419937 15.75649 10.28125 13.35457 19.486388-6.82155 35.38488-15.56018 54.444882-24.74889 1.479454.74944 2.497318 1.59969 3.980684 2.34137 0 0-54.620734 28.13349-62.831816 31.6467-.469268.20078-1.801177 1.83641-1.421278 2.17729 1.298045 1.16474 2.26312 1.16489 2.890028.85396 20.814224-11.18107 42.427187-22.24277 63.275343-33.3643 1.592461 1.16131 2.703622 1.37735 3.989417 2.7126-16.004532 12.96784-58.184334 42.13493-62.85851 38.18295 3.410115 15.78164 12.553187 13.37516 19.09375 9.03125 20.387997-13.54066 36.44316-26.52006 56.28125-41.75 1.96619.66616 4.33934 1.02744 6.58637 1.64454-15.3919 13.9095-43.419147 38.52238-45.24262 40.10546-1.161683 1.00853-1.929899 1.87997-1.421278 2.79207.47078.84425 1.876997 1.25397 2.890028.23918 2.364509-2.36861 31.85355-29.15337 45.70876-42.61262.58078.60663 2.44474.29568 3.30317.53341-8.85436 13.08113-27.565749 40.40173-31.38693 39.04796 7.41151 6.86733 14.7713 8.0095 20.59375 1.5 9.88564-11.05214 19.07023-27.49378 25.59614-41.11307 1.19382.66387 2.10807 1.14496 3.47113 1.5458-5.25665 13.45092-15.44206 37.53917-17.31727 39.56727-.82042.88731.0267 1.68716.38762 2.04808.69238.69237 1.71239.2727 2.54988-.51683 1.18195-1.11426 11.81661-26.78651 17.15386-40.14193 1.12961.41455 2.83118.66305 4.30773.8941-4.50758 8.68593-5.91102 36.14638-12.64909 37.71658 7.42903 2.34325 15.90248 1.97069 17.23738-5.66286 1.33489-7.63356 5.41647-31.82164 11.58944-42.68544l1.70682-.82227c-1.36834 15.64827-2.51584 31.37116-4.09614 41.63932-.36161 2.34961.43056 2.15825 1.08113 2.4357.45034.19206 1.74988.24715 1.85637-.90445.83899-9.07332 3.04534-28.14855 3.71875-43.90625 3.61776-1.41353 7.16729-1.3125 10.96875-1.3125 1.62287-2.1672 3.54311-3.30925 5.875-4.5 4.46413 13.9237 11.57178 21.89694 14.6875 34.625.2858 12.65699-1.71814 17.69422-4.40625 28.73263h28.5625v-109.23263l-.65625.65625-8.8125-12.0625-2.9375-6c3.89262-1.920739 5.97674-7.458599 2.9375-10.5625-.0216 3.434365-1.61385 4.605343-4.40625 6.03125-6.51261-4.485318-16.72055-13.59615-17.625-16.5625-.14886-.488227 0-1.020833 0-1.53125 3.16407-4.502137 3.28468-7.176683 0-10.53125.23185 5.122444-1.24223 6.03125-5.875 6.03125l-14.6875-10.5625c2.8873-3.909402 1.36708-7.84275 0-12.03125-1.24856 5.73397.0226 6-5.875 6-8.61204-2.443778-14.27109-4.834458-22.03125-7.53125-5.16956-.579419-9.76533.248344-14.6875 1.53125z" fill-rule="evenodd" transform="translate(111.519 241.937)"/><path d="m224.62881 291.65806c0-20.92619 16.32172-37.66717 36.72389-37.66717s36.72392 16.74098 36.72392 37.66717c0 20.9262-16.32175 37.66715-36.72392 37.66715s-36.72389-16.74095-36.72389-37.66715z" fill="none" stroke="#0c0a08" stroke-linecap="square" stroke-miterlimit="10" stroke-width="2.9754"/><path d="m219.77426 296.04454c1.96032 6.20726 5.04015 10.59871 9.33701 10.71129 5.75867.15088 18.59923-2.46617 23.4277-3.04428 3.40325-.40747 10.28268 0 10.28268 0v1.50669s-6.86828-.30007-10.28268 0c-4.67012.41042-17.91552 3.43645-23.33534 3.38181-6.71556-.0677-10.80387-6.6036-10.91525-12.34089-.01-.50034 1.33517-.69182 1.48588-.21462z" fill="#f00"/><path d="m236.38045 282.61793c7.07626 2.3992 13.56655 6.22249 19.80966 10.31862 6.44593 4.2292 9.81996 8.5144 13.70924 13.73196-.42185 1.39989-1.54457 2.44528-2.39175 3.10368-5.67605-.7417-10.41196-.0468-13.6816 2.81917-2.98054-6.37881 3.11452-7.10561 7.37307-7.40228-9.03385-6.82739-23.39692-9.58854-27.57858-4.4066-4.40283-6.44588-4.04194-14.52766 2.75996-18.16455z" fill="#f00" fill-rule="evenodd" stroke="#000" stroke-width="2"/><path d="m340.67635 451.36676h-4.40689 4.40689-4.40689z" fill="#0c0a08"/><g fill="#fff"><path d="m251.0815 278.84325c-1.84497.68821-2.9616 2.40288-4.34317 3.6999.87852-.023 1.94585.19542 2.36621 1.06313 2.13038 2.18057 4.2556 4.36616 6.38321 6.54942 2.53337.32295 4.38631-.67055 4.40625-3.03125 1.55161.92483 2.76302 1.53125 4.40625 1.53125-.97917-.51042-1.95833-1.02083-2.9375-1.53125-1.42356-3.42345-3.94993-5.54489-6.31927-7.97552-1.07856 1.4418-1.344 3.3958-.86741 5.11275.55279.55866 1.50653 1.39407.70221 2.16569-.54728.67124-1.42212.12737-1.28175-.63989-.47124-2.61315-2.32012-4.65285-2.51507-6.94423z" fill-rule="evenodd"/><path d="m196.07889 327.34564 3.48695-2.66705c-17.62307-9.96066-68.0974-37.87674-65.6215-42.25814-6.47876 6.11684 20.04513 20.18112 62.13455 44.92519z"/><path d="m184.63171 349.31865.39088-4.18294c-19.32708-6.02091-53.87393-13.91644-53.6566-19.81774-4.12975 7.89354 10.01161 10.88014 53.26572 24.00068z"/><path d="m187.35539 367.85687-1.44666-4.22023c-35.34753 3.92655-47.81477 6.34305-48.26249 1.96165-1.75212 8.73615 13.10152 7.29891 49.70915 2.25858z"/><path d="m199.14124 383.75407-3.36528-3.39796c-39.13104 19.50375-51.55626 26.50207-53.37884 22.33565.39454 10.74232 16.23431 2.02581 56.74412-18.93769z"/><path d="m220.6116 397.54991-4.73574-2.39296c-44.74135 32.62442-56.54356 42.99527-59.77425 39.69465 1.92665 10.86773 17.07809-3.63916 64.50999-37.30169z"/><path d="m246.55874 401.84398-5.10118.34793c-20.53594 32.74222-25.88761 41.2438-29.98986 38.68966 6.67754 9.77137 16.11697-8.12894 35.09104-39.03759z"/><path d="m269.6266 403.59556-3.97346 1.02532c-5.02794 25.33373-6.4024 36.41721-10.3311 35.71251 8.37179 2.7391 9.55404-10.25896 14.30456-36.73783z"/></g><g transform="matrix(-1 0 0 1 673.49127 -.556409)"><path d="m132.21875 31.65625c-1.77925 1.667739-2.72528 1.283268-4.40625 3-1.59789 1.517176-2.9375 2.36754-2.9375 4.53125-10.53196 5.008814-7.09555 16.758762-2.9375 21.09375 9.57938-6.423557 16.4196-.796836 26.9372 2.870793-7.22731-1.074895-11.00499 3.71101-6.56851 8.241889 4.99614-3.29446 10.24325-3.69196 16.30259-1.629207 3.14984 1.319903 4.99245 1.597972 7.39122 4.047775-1.94904 1.028484-3.91239 2.029066-5.875 3.03125 4.85125.385865 9.15328-.358679 11.75-3.03125l2.9375 3.03125c2.6297 3.38809 5.00203 6.943935 7.34375 10.53125 0 2.510417.77524 4.245591.77524 6.756008-3.12582 3.708869-8.44959 4.615018-11.05649.775242 2.67623 6.24517 10.23614 7.11823 14.6875 3.03125l5.875 7.53125c.57375 2.51798 1.46875 4.94238 1.46875 7.53125-2.44792 0-4.94444-.48542-7.34375 0-2.45309.49631-6.5244.91288-7.34375 3-1.23542 3.14697.41853 5.82246 1.46875 9.0625-1.50276 1.18441-2.11811 2.82636-2.9375 4.5-4.50749 3.13-9.90831 3.95068-14.6875 3.03125-1.89026-.36365-1.41389-3.44022-2.9375-4.53125-6.76954-4.84754-16.62099-6.74964-23.5-4.5-4.24328 1.38768-8.13784 4.51045-11.75 4.5-10.73055-2.83482-16.29654-12.31305-17.65625-21.09375-.15034-.97084 2.36153-1.22992 2.96875-3 3.49891 3.16001 8.90147 5.84378 12.65445 7.53125 3.109 1.39791 8.97649.77958 12.3143-3.03125 2.14834-2.4528.68677-13.120691-.90445-15.0625-5.57932-6.808594-15.40915-8.361992-22.59555-12.03125-2.19062-3.751749-3.92606-12.85212 0-13.5625-4.77242-5.057639-9.27658 4.778346-10.09375 8.09375 0 0-55.62866-41.705165-57.5-42.75-.427467-.23867-1.122562-.346188-1.46875 0-.353553.353553 0 1.5 0 1.5 2.19652 1.080122 37.466175 28.453819 57.052731 42.422958-2.481609.735263-5.056961 2.184621-7.578094 3.379227-29.638139-18.64554-72.521504-41.26501-68.568387-45.802185-8.573693 7.891067-5.47599 14.217374 1.679692 19.414058 18.393904 13.358239 25.494678 17.049471 56.103502 34.549697-1.432816 1.76316-1.84228 1.748758-3.326378 4.582037-18.684247-8.351958-37.521631-17.976438-55.925566-26.920792h-1.46875v1.53125c18.270618 9.76414 37.347514 19.221709 56.519316 27.050566-.518831 1.0375-1.583605 3.633044-2.092415 4.675485-15.026179-3.32771-57.844383-14.628836-54.426901-21.194801-7.55228 11.147736-2.471187 15.237192 5.521642 18.818508 14.776489 6.620842 32.889847 10.375502 46.327546 14.421942 0 .90163.27409 2.21257.27409 2.99046-15.671289-2.26-44.382459-6.95987-50.654528-7.60591-.487007-.0502-1.205279-.22611-1.436448.0646-.338862.42615.08881 1.1871 1.436448 1.4354 15.995803 2.94722 36.712691 5.68043 50.654528 7.71398l.646481 1.62261c-16.958738 1.8089-48.249164 4.11895-49.832259-.27409-2.328653 10.66408 2.612118 18.53813 11.75 18.0625 15.004001-1.14303 27.506933-3.75043 42.78125-5.84375l1.233071 2.02648c-17.796727 4.33349-50.971818 12.5706-52.826821 12.87977-1.162864.19381-1.938106.22476-1.938106 1.37079 0 1.85668 1.019004.88141 1.938106.91857 4.673302.18896 35.224313-9.01712 53.893873-13.80368 0 .60417 1.004995 1.20833 1.004995 1.8125-11.528493 5.55021-52.470569 26.51373-54.898868 21.73307-.307571 7.11409 3.419937 15.75649 10.28125 13.35457 19.486388-6.82155 35.38488-15.56018 54.444882-24.74889 1.479454.74944 2.497318 1.59969 3.980684 2.34137 0 0-54.620734 28.13349-62.831816 31.6467-.469268.20078-1.801177 1.83641-1.421278 2.17729 1.298045 1.16474 2.26312 1.16489 2.890028.85396 20.814224-11.18107 42.427187-22.24277 63.275343-33.3643 1.592461 1.16131 2.703622 1.37735 3.989417 2.7126-16.004532 12.96784-58.184334 42.13493-62.85851 38.18295 3.410115 15.78164 12.553187 13.37516 19.09375 9.03125 20.387997-13.54066 36.44316-26.52006 56.28125-41.75 1.96619.66616 4.33934 1.02744 6.58637 1.64454-15.3919 13.9095-43.419147 38.52238-45.24262 40.10546-1.161683 1.00853-1.929899 1.87997-1.421278 2.79207.47078.84425 1.876997 1.25397 2.890028.23918 2.364509-2.36861 31.85355-29.15337 45.70876-42.61262.58078.60663 2.44474.29568 3.30317.53341-8.85436 13.08113-27.565749 40.40173-31.38693 39.04796 7.41151 6.86733 14.7713 8.0095 20.59375 1.5 9.88564-11.05214 19.07023-27.49378 25.59614-41.11307 1.19382.66387 2.10807 1.14496 3.47113 1.5458-5.25665 13.45092-15.44206 37.53917-17.31727 39.56727-.82042.88731.0267 1.68716.38762 2.04808.69238.69237 1.71239.2727 2.54988-.51683 1.18195-1.11426 11.81661-26.78651 17.15386-40.14193 1.12961.41455 2.83118.66305 4.30773.8941-4.50758 8.68593-5.91102 36.14638-12.64909 37.71658 7.42903 2.34325 15.90248 1.97069 17.23738-5.66286 1.33489-7.63356 5.41647-31.82164 11.58944-42.68544l1.70682-.82227c-1.36834 15.64827-2.51584 31.37116-4.09614 41.63932-.36161 2.34961.43056 2.15825 1.08113 2.4357.45034.19206 1.74988.24715 1.85637-.90445.83899-9.07332 3.04534-28.14855 3.71875-43.90625 3.61776-1.41353 7.16729-1.3125 10.96875-1.3125 1.62287-2.1672 3.54311-3.30925 5.875-4.5 4.46413 13.9237 11.57178 21.89694 14.6875 34.625.2858 12.65699-1.71814 17.69422-4.40625 28.73263h28.5625v-109.23263l-.65625.65625-8.8125-12.0625-2.9375-6c3.89262-1.920739 5.97674-7.458599 2.9375-10.5625-.0216 3.434365-1.61385 4.605343-4.40625 6.03125-6.51261-4.485318-16.72055-13.59615-17.625-16.5625-.14886-.488227 0-1.020833 0-1.53125 3.16407-4.502137 3.28468-7.176683 0-10.53125.23185 5.122444-1.24223 6.03125-5.875 6.03125l-14.6875-10.5625c2.8873-3.909402 1.36708-7.84275 0-12.03125-1.24856 5.73397.0226 6-5.875 6-8.61204-2.443778-14.27109-4.834458-22.03125-7.53125-5.16956-.579419-9.76533.248344-14.6875 1.53125z" fill-rule="evenodd" transform="translate(111.519 241.937)"/><path d="m224.62881 291.65806c0-20.92619 16.32172-37.66717 36.72389-37.66717s36.72392 16.74098 36.72392 37.66717c0 20.9262-16.32175 37.66715-36.72392 37.66715s-36.72389-16.74095-36.72389-37.66715z" fill="none" stroke="#0c0a08" stroke-linecap="square" stroke-miterlimit="10" stroke-width="2.9754"/><path d="m219.77426 296.04454c1.96032 6.20726 5.04015 10.59871 9.33701 10.71129 5.75867.15088 18.59923-2.46617 23.4277-3.04428 3.40325-.40747 10.28268 0 10.28268 0v1.50669s-6.86828-.30007-10.28268 0c-4.67012.41042-17.91552 3.43645-23.33534 3.38181-6.71556-.0677-10.80387-6.6036-10.91525-12.34089-.01-.50034 1.33517-.69182 1.48588-.21462z" fill="#f00"/><path d="m236.38045 282.61793c7.07626 2.3992 13.56655 6.22249 19.80966 10.31862 6.44593 4.2292 9.81996 8.5144 13.70924 13.73196-.42185 1.39989-1.54457 2.44528-2.39175 3.10368-5.67605-.7417-10.41196-.0468-13.6816 2.81917-2.98054-6.37881 3.11452-7.10561 7.37307-7.40228-9.03385-6.82739-23.39692-9.58854-27.57858-4.4066-4.40283-6.44588-4.04194-14.52766 2.75996-18.16455z" fill="#f00" fill-rule="evenodd" stroke="#000" stroke-width="2"/><path d="m340.67635 451.36676h-4.40689 4.40689-4.40689z" fill="#0c0a08"/><g fill="#fff"><path d="m251.0815 278.84325c-1.84497.68821-2.9616 2.40288-4.34317 3.6999.87852-.023 1.94585.19542 2.36621 1.06313 2.13038 2.18057 4.2556 4.36616 6.38321 6.54942 2.53337.32295 4.38631-.67055 4.40625-3.03125 1.55161.92483 2.76302 1.53125 4.40625 1.53125-.97917-.51042-1.95833-1.02083-2.9375-1.53125-1.42356-3.42345-3.94993-5.54489-6.31927-7.97552-1.07856 1.4418-1.344 3.3958-.86741 5.11275.55279.55866 1.50653 1.39407.70221 2.16569-.54728.67124-1.42212.12737-1.28175-.63989-.47124-2.61315-2.32012-4.65285-2.51507-6.94423z" fill-rule="evenodd"/><path d="m196.07889 327.34564 3.48695-2.66705c-17.62307-9.96066-68.0974-37.87674-65.6215-42.25814-6.47876 6.11684 20.04513 20.18112 62.13455 44.92519z"/><path d="m184.63171 349.31865.39088-4.18294c-19.32708-6.02091-53.87393-13.91644-53.6566-19.81774-4.12975 7.89354 10.01161 10.88014 53.26572 24.00068z"/><path d="m187.35539 367.85687-1.44666-4.22023c-35.34753 3.92655-47.81477 6.34305-48.26249 1.96165-1.75212 8.73615 13.10152 7.29891 49.70915 2.25858z"/><path d="m199.14124 383.75407-3.36528-3.39796c-39.13104 19.50375-51.55626 26.50207-53.37884 22.33565.39454 10.74232 16.23431 2.02581 56.74412-18.93769z"/><path d="m220.6116 397.54991-4.73574-2.39296c-44.74135 32.62442-56.54356 42.99527-59.77425 39.69465 1.92665 10.86773 17.07809-3.63916 64.50999-37.30169z"/><path d="m246.55874 401.84398-5.10118.34793c-20.53594 32.74222-25.88761 41.2438-29.98986 38.68966 6.67754 9.77137 16.11697-8.12894 35.09104-39.03759z"/><path d="m269.6266 403.59556-3.97346 1.02532c-5.02794 25.33373-6.4024 36.41721-10.3311 35.71251 8.37179 2.7391 9.55404-10.25896 14.30456-36.73783z"/></g></g></g></g></svg>